<?xml version="1.0" encoding="UTF-8" standalone="no"?>
<!DOCTYPE svg PUBLIC "-//W3C//DTD SVG 1.1//EN"
 "http://www.w3.org/Graphics/SVG/1.1/DTD/svg11.dtd">
<!-- Generated by graphviz version 2.40.1 (20161225.0304)
 -->
<!-- Title: PageAndHook Pages: 1 -->
<svg width="854pt" height="556pt"
 viewBox="0.00 0.00 854.00 555.60" xmlns="http://www.w3.org/2000/svg" xmlns:xlink="http://www.w3.org/1999/xlink">
<g id="graph0" class="graph" transform="scale(1 1) rotate(0) translate(4 551.6)">
<title>PageAndHook</title>
<polygon fill="#ffffff" stroke="transparent" points="-4,4 -4,-551.6 850,-551.6 850,4 -4,4"/>
<g id="clust1" class="cluster">
<title>clusterPage</title>
<polygon fill="none" stroke="#000000" points="40,-144.8 40,-539.6 212,-539.6 212,-144.8 40,-144.8"/>
<text text-anchor="middle" x="126" y="-523" font-family="Times,serif" font-size="14.00" fill="#000000">Page</text>
</g>
<g id="clust3" class="cluster">
<title>clusterDevtoolsTab</title>
<polygon fill="none" stroke="#000000" points="651,-164 651,-249.6 789,-249.6 789,-164 651,-164"/>
<text text-anchor="middle" x="720" y="-233" font-family="Times,serif" font-size="14.00" fill="#000000">Devtools Tab</text>
</g>
<!-- App -->
<g id="node1" class="node">
<title>App</title>
<ellipse fill="none" stroke="#000000" cx="126" cy="-488.8" rx="27.8306" ry="18"/>
<text text-anchor="middle" x="126" y="-484.6" font-family="Times,serif" font-size="14.00" fill="#000000">App</text>
</g>
<!-- ul -->
<g id="node2" class="node">
<title>ul</title>
<path fill="none" stroke="#000000" d="M115.405,-230.466C115.405,-230.466 58.1793,-200.0343 58.1793,-200.0343 52.8818,-197.2171 52.8818,-191.5829 58.1793,-188.7657 58.1793,-188.7657 115.405,-158.334 115.405,-158.334 120.7025,-155.5169 131.2975,-155.5169 136.595,-158.334 136.595,-158.334 193.8207,-188.7657 193.8207,-188.7657 199.1182,-191.5829 199.1182,-197.2171 193.8207,-200.0343 193.8207,-200.0343 136.595,-230.466 136.595,-230.466 131.2975,-233.2831 120.7025,-233.2831 115.405,-230.466"/>
<text text-anchor="middle" x="126" y="-198.6" font-family="Times,serif" font-size="14.00" fill="#000000">&lt;ul&gt;</text>
<text text-anchor="middle" x="126" y="-181.8" font-family="Times,serif" font-size="14.00" fill="#000000"> App result</text>
</g>
<!-- App&#45;&gt;ul -->
<g id="edge1" class="edge">
<title>App&#45;&gt;ul</title>
<path fill="none" stroke="#000000" d="M126,-470.384C126,-426.2925 126,-313.367 126,-246.4217"/>
<polygon fill="#000000" stroke="#000000" points="129.5001,-246.0897 126,-236.0898 122.5001,-246.0898 129.5001,-246.0897"/>
</g>
<!-- Registry -->
<g id="node3" class="node">
<title>Registry</title>
<polygon fill="none" stroke="#000000" points="252,-94.6009 4,-94.6009 0,-90.6009 0,.2009 248,.2009 252,-3.7991 252,-94.6009"/>
<polyline fill="none" stroke="#000000" points="248,-90.6009 0,-90.6009 "/>
<polyline fill="none" stroke="#000000" points="248,-90.6009 248,.2009 "/>
<polyline fill="none" stroke="#000000" points="248,-90.6009 252,-94.6009 "/>
<text text-anchor="middle" x="126" y="-67.8" font-family="Times,serif" font-size="14.00" fill="#000000">Registry</text>
<text text-anchor="middle" x="126" y="-35" font-family="Times,serif" font-size="14.00" fill="#000000"> Map&lt;string, ComponentItem&gt;</text>
<text text-anchor="middle" x="126" y="-18.2" font-family="Times,serif" font-size="14.00" fill="#000000"> Map&lt;string, Node&gt;</text>
</g>
<!-- ul&#45;&gt;Registry -->
<g id="edge2" class="edge">
<title>ul&#45;&gt;Registry</title>
<path fill="none" stroke="#000000" d="M126,-132.5895C126,-122.6471 126,-112.4099 126,-102.6294"/>
<polyline fill="none" stroke="#000000" points="126,-144.8 126.0001,-134.8 "/>
<path fill="none" stroke="#000000" d="M126,-144.8C123.5625,-144.8 121.125,-143.1333 121,-139.8"/>
<polyline fill="none" stroke="#000000" points="126.0001,-134.8 126.0002,-124.8 "/>
<path fill="none" stroke="#000000" d="M126.0001,-134.8C123.5626,-134.8 121.1251,-133.1333 121.0001,-129.8"/>
<ellipse fill="#000000" stroke="#000000" cx="126" cy="-98.5377" rx="4" ry="4"/>
<text text-anchor="middle" x="145.25" y="-116.6" font-family="Times,serif" font-size="14.00" fill="#000000"> &#160;&#160;hook</text>
</g>
<!-- Channel -->
<g id="node6" class="node">
<title>Channel</title>
<polygon fill="none" stroke="#000000" points="495,-65.2 351,-65.2 351,-29.2 495,-29.2 495,-65.2"/>
<text text-anchor="middle" x="423" y="-43" font-family="Times,serif" font-size="14.00" fill="#000000">Channel</text>
</g>
<!-- Registry&#45;&gt;Channel -->
<g id="edge3" class="edge">
<title>Registry&#45;&gt;Channel</title>
<path fill="none" stroke="#000000" d="M252.1641,-26.983C278.01,-25.0867 305.0266,-24.7346 330.2728,-27.4 333.7336,-27.7654 337.2552,-28.2054 340.8039,-28.7053"/>
<polygon fill="#000000" stroke="#000000" points="340.4309,-32.1892 350.8487,-30.2603 341.5019,-25.2716 340.4309,-32.1892"/>
<text text-anchor="middle" x="301.5" y="-31.6" font-family="Times,serif" font-size="14.00" fill="#000000">FromPage</text>
</g>
<!-- DevtoolsTab -->
<g id="node4" class="node">
<title>DevtoolsTab</title>
<polygon fill="none" stroke="#000000" points="781.4757,-216.7004 658.5243,-216.7004 658.5243,-172.0996 781.4757,-172.0996 781.4757,-216.7004"/>
<text text-anchor="middle" x="720" y="-190.2" font-family="Times,serif" font-size="14.00" fill="#000000">Component Tree</text>
</g>
<!-- RegistryMirror -->
<g id="node5" class="node">
<title>RegistryMirror</title>
<polygon fill="none" stroke="#000000" points="846,-94.6009 598,-94.6009 594,-90.6009 594,.2009 842,.2009 846,-3.7991 846,-94.6009"/>
<polyline fill="none" stroke="#000000" points="842,-90.6009 594,-90.6009 "/>
<polyline fill="none" stroke="#000000" points="842,-90.6009 842,.2009 "/>
<polyline fill="none" stroke="#000000" points="842,-90.6009 846,-94.6009 "/>
<text text-anchor="middle" x="720" y="-67.8" font-family="Times,serif" font-size="14.00" fill="#000000">Registry Mirror</text>
<text text-anchor="middle" x="720" y="-35" font-family="Times,serif" font-size="14.00" fill="#000000"> &#160;&#160;&#160;Map&lt;string, ComponentItem&gt;</text>
<text text-anchor="middle" x="720" y="-18.2" font-family="Times,serif" font-size="14.00" fill="#000000"> &#160;&#160;&#160;Map&lt;string, Node&gt;</text>
</g>
<!-- DevtoolsTab&#45;&gt;RegistryMirror -->
<g id="edge7" class="edge">
<title>DevtoolsTab&#45;&gt;RegistryMirror</title>
<path fill="none" stroke="#000000" d="M720,-161.9916C720,-142.1918 720,-116.5257 720,-94.4854"/>
<polygon fill="#000000" stroke="#000000" points="716.5001,-162.0435 720,-172.0435 723.5001,-162.0435 716.5001,-162.0435"/>
</g>
<!-- RegistryMirror&#45;&gt;Channel -->
<g id="edge5" class="edge">
<title>RegistryMirror&#45;&gt;Channel</title>
<path fill="none" stroke="#000000" d="M593.9738,-47.2C564.0856,-47.2 532.9541,-47.2 505.5741,-47.2"/>
<polygon fill="#000000" stroke="#000000" points="505.2746,-43.7001 495.2746,-47.2 505.2746,-50.7001 505.2746,-43.7001"/>
<text text-anchor="middle" x="544.5" y="-54.4" font-family="Times,serif" font-size="14.00" fill="#000000">FromDevtools</text>
</g>
<!-- Channel&#45;&gt;Registry -->
<g id="edge4" class="edge">
<title>Channel&#45;&gt;Registry</title>
<path fill="none" stroke="#000000" d="M350.8077,-47.2C324.199,-47.2 293.1023,-47.2 262.6722,-47.2"/>
<polygon fill="#000000" stroke="#000000" points="262.3854,-43.7001 252.3854,-47.2 262.3854,-50.7001 262.3854,-43.7001"/>
<text text-anchor="middle" x="301.5" y="-54.4" font-family="Times,serif" font-size="14.00" fill="#000000">FromDevtools</text>
</g>
<!-- Channel&#45;&gt;RegistryMirror -->
<g id="edge6" class="edge">
<title>Channel&#45;&gt;RegistryMirror</title>
<path fill="none" stroke="#000000" d="M495.1513,-30.2603C502.0749,-29.0981 509.0153,-28.1086 515.7272,-27.4 537.719,-25.0782 561.0542,-25.0461 583.7887,-26.3298"/>
<polygon fill="#000000" stroke="#000000" points="583.6298,-29.8267 593.8359,-26.983 584.084,-22.8415 583.6298,-29.8267"/>
<text text-anchor="middle" x="544.5" y="-31.6" font-family="Times,serif" font-size="14.00" fill="#000000">FromPage</text>
</g>
</g>
</svg>
