<?xml version="1.0" encoding="UTF-8" standalone="no"?>
<!DOCTYPE svg PUBLIC "-//W3C//DTD SVG 1.1//EN"
 "http://www.w3.org/Graphics/SVG/1.1/DTD/svg11.dtd">
<!-- Generated by graphviz version 2.40.1 (20161225.0304)
 -->
<!-- Title: ComponentResult Pages: 1 -->
<svg width="606pt" height="595pt"
 viewBox="0.00 0.00 606.00 595.20" xmlns="http://www.w3.org/2000/svg" xmlns:xlink="http://www.w3.org/1999/xlink">
<g id="graph0" class="graph" transform="scale(1 1) rotate(0) translate(4 591.2)">
<title>ComponentResult</title>
<polygon fill="#ffffff" stroke="transparent" points="-4,4 -4,-591.2 602,-591.2 602,4 -4,4"/>
<g id="clust1" class="cluster">
<title>clusterForResult</title>
<polygon fill="none" stroke="#000000" points="8,-136 8,-260 590,-260 590,-136 8,-136"/>
</g>
<!-- App -->
<g id="node1" class="node">
<title>App</title>
<ellipse fill="none" stroke="#000000" cx="255" cy="-569.2" rx="27.8306" ry="18"/>
<text text-anchor="middle" x="255" y="-565" font-family="Times,serif" font-size="14.00" fill="#000000">App</text>
</g>
<!-- ul -->
<g id="node2" class="node">
<title>ul</title>
<path fill="none" stroke="#000000" d="M244.405,-509.666C244.405,-509.666 187.1793,-479.2343 187.1793,-479.2343 181.8818,-476.4171 181.8818,-470.7829 187.1793,-467.9657 187.1793,-467.9657 244.405,-437.534 244.405,-437.534 249.7025,-434.7169 260.2975,-434.7169 265.595,-437.534 265.595,-437.534 322.8207,-467.9657 322.8207,-467.9657 328.1182,-470.7829 328.1182,-476.4171 322.8207,-479.2343 322.8207,-479.2343 265.595,-509.666 265.595,-509.666 260.2975,-512.4831 249.7025,-512.4831 244.405,-509.666"/>
<text text-anchor="middle" x="255" y="-477.8" font-family="Times,serif" font-size="14.00" fill="#000000">&lt;ul&gt;</text>
<text text-anchor="middle" x="255" y="-461" font-family="Times,serif" font-size="14.00" fill="#000000"> App result</text>
</g>
<!-- App&#45;&gt;ul -->
<g id="edge1" class="edge">
<title>App&#45;&gt;ul</title>
<path fill="none" stroke="#000000" d="M255,-550.7674C255,-543.4349 255,-534.5971 255,-525.5594"/>
<polygon fill="#000000" stroke="#000000" points="258.5001,-525.3403 255,-515.3403 251.5001,-525.3404 258.5001,-525.3403"/>
</g>
<!-- For -->
<g id="node3" class="node">
<title>For</title>
<ellipse fill="none" stroke="#000000" cx="255" cy="-378" rx="27" ry="18"/>
<text text-anchor="middle" x="255" y="-373.8" font-family="Times,serif" font-size="14.00" fill="#000000">For</text>
</g>
<!-- ul&#45;&gt;For -->
<g id="edge2" class="edge">
<title>ul&#45;&gt;For</title>
<path fill="none" stroke="#000000" d="M255,-431.9466C255,-423.3675 255,-414.5199 255,-406.5339"/>
<polygon fill="#000000" stroke="#000000" points="258.5001,-406.2842 255,-396.2842 251.5001,-406.2843 258.5001,-406.2842"/>
</g>
<!-- Cat1 -->
<g id="node4" class="node">
<title>Cat1</title>
<ellipse fill="none" stroke="#000000" cx="137" cy="-306" rx="27" ry="18"/>
<text text-anchor="middle" x="137" y="-301.8" font-family="Times,serif" font-size="14.00" fill="#000000">Cat</text>
</g>
<!-- For&#45;&gt;Cat1 -->
<g id="edge3" class="edge">
<title>For&#45;&gt;Cat1</title>
<path fill="none" stroke="#000000" d="M234.9829,-365.7862C215.9965,-354.2013 187.2613,-336.6679 165.8121,-323.5803"/>
<polygon fill="#000000" stroke="#000000" points="167.4747,-320.4947 157.1153,-318.2737 163.8287,-326.4702 167.4747,-320.4947"/>
</g>
<!-- Cat2 -->
<g id="node5" class="node">
<title>Cat2</title>
<ellipse fill="none" stroke="#000000" cx="255" cy="-306" rx="27" ry="18"/>
<text text-anchor="middle" x="255" y="-301.8" font-family="Times,serif" font-size="14.00" fill="#000000">Cat</text>
</g>
<!-- For&#45;&gt;Cat2 -->
<g id="edge4" class="edge">
<title>For&#45;&gt;Cat2</title>
<path fill="none" stroke="#000000" d="M255,-359.8314C255,-352.131 255,-342.9743 255,-334.4166"/>
<polygon fill="#000000" stroke="#000000" points="258.5001,-334.4132 255,-324.4133 251.5001,-334.4133 258.5001,-334.4132"/>
</g>
<!-- Cat3 -->
<g id="node6" class="node">
<title>Cat3</title>
<ellipse fill="none" stroke="#000000" cx="373" cy="-306" rx="27" ry="18"/>
<text text-anchor="middle" x="373" y="-301.8" font-family="Times,serif" font-size="14.00" fill="#000000">Cat</text>
</g>
<!-- For&#45;&gt;Cat3 -->
<g id="edge5" class="edge">
<title>For&#45;&gt;Cat3</title>
<path fill="none" stroke="#000000" d="M275.0171,-365.7862C294.0035,-354.2013 322.7387,-336.6679 344.1879,-323.5803"/>
<polygon fill="#000000" stroke="#000000" points="346.1713,-326.4702 352.8847,-318.2737 342.5253,-320.4947 346.1713,-326.4702"/>
</g>
<!-- li1 -->
<g id="node8" class="node">
<title>li1</title>
<path fill="none" stroke="#000000" d="M79.5598,-233.7839C79.5598,-233.7839 26.8545,-203.9163 26.8545,-203.9163 21.6345,-200.9582 21.6345,-195.0418 26.8545,-192.0837 26.8545,-192.0837 79.5598,-162.2161 79.5598,-162.2161 84.7799,-159.2579 95.2201,-159.2579 100.4402,-162.2161 100.4402,-162.2161 153.1455,-192.0837 153.1455,-192.0837 158.3655,-195.0418 158.3655,-200.9582 153.1455,-203.9163 153.1455,-203.9163 100.4402,-233.7839 100.4402,-233.7839 95.2201,-236.7421 84.7799,-236.7421 79.5598,-233.7839"/>
<text text-anchor="middle" x="90" y="-202.2" font-family="Times,serif" font-size="14.00" fill="#000000">&lt;li&gt;</text>
<text text-anchor="middle" x="90" y="-185.4" font-family="Times,serif" font-size="14.00" fill="#000000"> Cat result</text>
</g>
<!-- Cat1&#45;&gt;li1 -->
<g id="edge6" class="edge">
<title>Cat1&#45;&gt;li1</title>
<path fill="none" stroke="#000000" d="M129.4486,-288.6479C123.8956,-275.8877 116.0929,-257.9583 108.8913,-241.4099"/>
<polygon fill="#000000" stroke="#000000" points="111.9418,-239.6483 104.7421,-231.8756 105.5233,-242.4416 111.9418,-239.6483"/>
</g>
<!-- li2 -->
<g id="node9" class="node">
<title>li2</title>
<path fill="none" stroke="#000000" d="M244.5598,-233.7839C244.5598,-233.7839 191.8545,-203.9163 191.8545,-203.9163 186.6345,-200.9582 186.6345,-195.0418 191.8545,-192.0837 191.8545,-192.0837 244.5598,-162.2161 244.5598,-162.2161 249.7799,-159.2579 260.2201,-159.2579 265.4402,-162.2161 265.4402,-162.2161 318.1455,-192.0837 318.1455,-192.0837 323.3655,-195.0418 323.3655,-200.9582 318.1455,-203.9163 318.1455,-203.9163 265.4402,-233.7839 265.4402,-233.7839 260.2201,-236.7421 249.7799,-236.7421 244.5598,-233.7839"/>
<text text-anchor="middle" x="255" y="-202.2" font-family="Times,serif" font-size="14.00" fill="#000000">&lt;li&gt;</text>
<text text-anchor="middle" x="255" y="-185.4" font-family="Times,serif" font-size="14.00" fill="#000000"> Cat result</text>
</g>
<!-- Cat2&#45;&gt;li2 -->
<g id="edge7" class="edge">
<title>Cat2&#45;&gt;li2</title>
<path fill="none" stroke="#000000" d="M255,-287.6793C255,-277.2246 255,-263.5405 255,-250.0218"/>
<polygon fill="#000000" stroke="#000000" points="258.5001,-249.7725 255,-239.7725 251.5001,-249.7726 258.5001,-249.7725"/>
</g>
<!-- li3 -->
<g id="node10" class="node">
<title>li3</title>
<path fill="none" stroke="#000000" d="M409.5598,-233.7839C409.5598,-233.7839 356.8545,-203.9163 356.8545,-203.9163 351.6345,-200.9582 351.6345,-195.0418 356.8545,-192.0837 356.8545,-192.0837 409.5598,-162.2161 409.5598,-162.2161 414.7799,-159.2579 425.2201,-159.2579 430.4402,-162.2161 430.4402,-162.2161 483.1455,-192.0837 483.1455,-192.0837 488.3655,-195.0418 488.3655,-200.9582 483.1455,-203.9163 483.1455,-203.9163 430.4402,-233.7839 430.4402,-233.7839 425.2201,-236.7421 414.7799,-236.7421 409.5598,-233.7839"/>
<text text-anchor="middle" x="420" y="-202.2" font-family="Times,serif" font-size="14.00" fill="#000000">&lt;li&gt;</text>
<text text-anchor="middle" x="420" y="-185.4" font-family="Times,serif" font-size="14.00" fill="#000000"> Cat result</text>
</g>
<!-- Cat3&#45;&gt;li3 -->
<g id="edge8" class="edge">
<title>Cat3&#45;&gt;li3</title>
<path fill="none" stroke="#000000" d="M380.5514,-288.6479C386.1044,-275.8877 393.9071,-257.9583 401.1087,-241.4099"/>
<polygon fill="#000000" stroke="#000000" points="404.4767,-242.4416 405.2579,-231.8756 398.0582,-239.6483 404.4767,-242.4416"/>
</g>
<!-- label -->
<g id="node7" class="node">
<title>label</title>
<text text-anchor="middle" x="547" y="-193.8" font-family="Times,serif" font-size="14.00" fill="#000000">For result</text>
</g>
<!-- a1 -->
<g id="node11" class="node">
<title>a1</title>
<path fill="none" stroke="#000000" d="M79.2011,-102.7671C79.2011,-102.7671 63.6534,-95.2329 63.6534,-95.2329 58.254,-92.6165 58.254,-87.3835 63.6534,-84.7671 63.6534,-84.7671 79.2011,-77.2329 79.2011,-77.2329 84.6005,-74.6165 95.3995,-74.6165 100.7989,-77.2329 100.7989,-77.2329 116.3466,-84.7671 116.3466,-84.7671 121.746,-87.3835 121.746,-92.6165 116.3466,-95.2329 116.3466,-95.2329 100.7989,-102.7671 100.7989,-102.7671 95.3995,-105.3835 84.6005,-105.3835 79.2011,-102.7671"/>
<text text-anchor="middle" x="90" y="-85.8" font-family="Times,serif" font-size="14.00" fill="#000000">&lt;a&gt;</text>
</g>
<!-- li1&#45;&gt;a1 -->
<g id="edge9" class="edge">
<title>li1&#45;&gt;a1</title>
<path fill="none" stroke="#000000" d="M90,-156.2444C90,-143.6494 90,-130.1163 90,-118.5859"/>
<polygon fill="#000000" stroke="#000000" points="93.5001,-118.2405 90,-108.2405 86.5001,-118.2406 93.5001,-118.2405"/>
</g>
<!-- a2 -->
<g id="node12" class="node">
<title>a2</title>
<path fill="none" stroke="#000000" d="M244.2011,-102.7671C244.2011,-102.7671 228.6534,-95.2329 228.6534,-95.2329 223.254,-92.6165 223.254,-87.3835 228.6534,-84.7671 228.6534,-84.7671 244.2011,-77.2329 244.2011,-77.2329 249.6005,-74.6165 260.3995,-74.6165 265.7989,-77.2329 265.7989,-77.2329 281.3466,-84.7671 281.3466,-84.7671 286.746,-87.3835 286.746,-92.6165 281.3466,-95.2329 281.3466,-95.2329 265.7989,-102.7671 265.7989,-102.7671 260.3995,-105.3835 249.6005,-105.3835 244.2011,-102.7671"/>
<text text-anchor="middle" x="255" y="-85.8" font-family="Times,serif" font-size="14.00" fill="#000000">&lt;a&gt;</text>
</g>
<!-- li2&#45;&gt;a2 -->
<g id="edge10" class="edge">
<title>li2&#45;&gt;a2</title>
<path fill="none" stroke="#000000" d="M255,-156.2444C255,-143.6494 255,-130.1163 255,-118.5859"/>
<polygon fill="#000000" stroke="#000000" points="258.5001,-118.2405 255,-108.2405 251.5001,-118.2406 258.5001,-118.2405"/>
</g>
<!-- a3 -->
<g id="node13" class="node">
<title>a3</title>
<path fill="none" stroke="#000000" d="M409.2011,-102.7671C409.2011,-102.7671 393.6534,-95.2329 393.6534,-95.2329 388.254,-92.6165 388.254,-87.3835 393.6534,-84.7671 393.6534,-84.7671 409.2011,-77.2329 409.2011,-77.2329 414.6005,-74.6165 425.3995,-74.6165 430.7989,-77.2329 430.7989,-77.2329 446.3466,-84.7671 446.3466,-84.7671 451.746,-87.3835 451.746,-92.6165 446.3466,-95.2329 446.3466,-95.2329 430.7989,-102.7671 430.7989,-102.7671 425.3995,-105.3835 414.6005,-105.3835 409.2011,-102.7671"/>
<text text-anchor="middle" x="420" y="-85.8" font-family="Times,serif" font-size="14.00" fill="#000000">&lt;a&gt;</text>
</g>
<!-- li3&#45;&gt;a3 -->
<g id="edge11" class="edge">
<title>li3&#45;&gt;a3</title>
<path fill="none" stroke="#000000" d="M420,-156.2444C420,-143.6494 420,-130.1163 420,-118.5859"/>
<polygon fill="#000000" stroke="#000000" points="423.5001,-118.2405 420,-108.2405 416.5001,-118.2406 423.5001,-118.2405"/>
</g>
<!-- text1 -->
<g id="node14" class="node">
<title>text1</title>
<path fill="none" stroke="#000000" d="M105,-36C105,-36 75,-36 75,-36 69,-36 63,-30 63,-24 63,-24 63,-12 63,-12 63,-6 69,0 75,0 75,0 105,0 105,0 111,0 117,-6 117,-12 117,-12 117,-24 117,-24 117,-30 111,-36 105,-36"/>
<text text-anchor="middle" x="90" y="-13.8" font-family="Times,serif" font-size="14.00" fill="#000000">text</text>
</g>
<!-- a1&#45;&gt;text1 -->
<g id="edge12" class="edge">
<title>a1&#45;&gt;text1</title>
<path fill="none" stroke="#000000" d="M90,-71.8314C90,-64.131 90,-54.9743 90,-46.4166"/>
<polygon fill="#000000" stroke="#000000" points="93.5001,-46.4132 90,-36.4133 86.5001,-46.4133 93.5001,-46.4132"/>
</g>
<!-- text2 -->
<g id="node15" class="node">
<title>text2</title>
<path fill="none" stroke="#000000" d="M270,-36C270,-36 240,-36 240,-36 234,-36 228,-30 228,-24 228,-24 228,-12 228,-12 228,-6 234,0 240,0 240,0 270,0 270,0 276,0 282,-6 282,-12 282,-12 282,-24 282,-24 282,-30 276,-36 270,-36"/>
<text text-anchor="middle" x="255" y="-13.8" font-family="Times,serif" font-size="14.00" fill="#000000">text</text>
</g>
<!-- a2&#45;&gt;text2 -->
<g id="edge13" class="edge">
<title>a2&#45;&gt;text2</title>
<path fill="none" stroke="#000000" d="M255,-71.8314C255,-64.131 255,-54.9743 255,-46.4166"/>
<polygon fill="#000000" stroke="#000000" points="258.5001,-46.4132 255,-36.4133 251.5001,-46.4133 258.5001,-46.4132"/>
</g>
<!-- text3 -->
<g id="node16" class="node">
<title>text3</title>
<path fill="none" stroke="#000000" d="M435,-36C435,-36 405,-36 405,-36 399,-36 393,-30 393,-24 393,-24 393,-12 393,-12 393,-6 399,0 405,0 405,0 435,0 435,0 441,0 447,-6 447,-12 447,-12 447,-24 447,-24 447,-30 441,-36 435,-36"/>
<text text-anchor="middle" x="420" y="-13.8" font-family="Times,serif" font-size="14.00" fill="#000000">text</text>
</g>
<!-- a3&#45;&gt;text3 -->
<g id="edge14" class="edge">
<title>a3&#45;&gt;text3</title>
<path fill="none" stroke="#000000" d="M420,-71.8314C420,-64.131 420,-54.9743 420,-46.4166"/>
<polygon fill="#000000" stroke="#000000" points="423.5001,-46.4132 420,-36.4133 416.5001,-46.4133 423.5001,-46.4132"/>
</g>
</g>
</svg>
