<?xml version="1.0" encoding="UTF-8" standalone="no"?>
<!DOCTYPE svg PUBLIC "-//W3C//DTD SVG 1.1//EN"
 "http://www.w3.org/Graphics/SVG/1.1/DTD/svg11.dtd">
<!-- Generated by graphviz version 2.40.1 (20161225.0304)
 -->
<!-- Title: PageAndHook Pages: 1 -->
<svg width="392pt" height="406pt"
 viewBox="0.00 0.00 392.00 406.20" xmlns="http://www.w3.org/2000/svg" xmlns:xlink="http://www.w3.org/1999/xlink">
<g id="graph0" class="graph" transform="scale(1 1) rotate(0) translate(4 402.2)">
<title>PageAndHook</title>
<polygon fill="#ffffff" stroke="transparent" points="-4,4 -4,-402.2 388,-402.2 388,4 -4,4"/>
<g id="clust1" class="cluster">
<title>clusterPage</title>
<polygon fill="none" stroke="#000000" points="56,-155.2 56,-390.2 228,-390.2 228,-155.2 56,-155.2"/>
<text text-anchor="middle" x="142" y="-373.6" font-family="Times,serif" font-size="14.00" fill="#000000">Page</text>
</g>
<g id="clust2" class="cluster">
<title>clusterHook</title>
<polygon fill="none" stroke="#000000" points="8,-8 8,-118.4 376,-118.4 376,-8 8,-8"/>
</g>
<!-- App -->
<g id="node1" class="node">
<title>App</title>
<ellipse fill="none" stroke="#000000" cx="142" cy="-339.4" rx="27.8306" ry="18"/>
<text text-anchor="middle" x="142" y="-335.2" font-family="Times,serif" font-size="14.00" fill="#000000">App</text>
</g>
<!-- ul -->
<g id="node2" class="node">
<title>ul</title>
<path fill="none" stroke="#000000" d="M131.405,-240.866C131.405,-240.866 74.1793,-210.4343 74.1793,-210.4343 68.8818,-207.6171 68.8818,-201.9829 74.1793,-199.1657 74.1793,-199.1657 131.405,-168.734 131.405,-168.734 136.7025,-165.9169 147.2975,-165.9169 152.595,-168.734 152.595,-168.734 209.8207,-199.1657 209.8207,-199.1657 215.1182,-201.9829 215.1182,-207.6171 209.8207,-210.4343 209.8207,-210.4343 152.595,-240.866 152.595,-240.866 147.2975,-243.6831 136.7025,-243.6831 131.405,-240.866"/>
<text text-anchor="middle" x="142" y="-209" font-family="Times,serif" font-size="14.00" fill="#000000">&lt;ul&gt;</text>
<text text-anchor="middle" x="142" y="-192.2" font-family="Times,serif" font-size="14.00" fill="#000000"> App result</text>
</g>
<!-- App&#45;&gt;ul -->
<g id="edge1" class="edge">
<title>App&#45;&gt;ul</title>
<path fill="none" stroke="#000000" d="M142,-321.2472C142,-304.7569 142,-279.6107 142,-256.9008"/>
<polygon fill="#000000" stroke="#000000" points="145.5001,-256.6777 142,-246.6778 138.5001,-256.6778 145.5001,-256.6777"/>
</g>
<!-- Registry -->
<g id="node4" class="node">
<title>Registry</title>
<polygon fill="none" stroke="#000000" points="268,-110.6009 20,-110.6009 16,-106.6009 16,-15.7991 264,-15.7991 268,-19.7991 268,-110.6009"/>
<polyline fill="none" stroke="#000000" points="264,-106.6009 16,-106.6009 "/>
<polyline fill="none" stroke="#000000" points="264,-106.6009 264,-15.7991 "/>
<polyline fill="none" stroke="#000000" points="264,-106.6009 268,-110.6009 "/>
<text text-anchor="middle" x="142" y="-83.8" font-family="Times,serif" font-size="14.00" fill="#000000">Registry</text>
<text text-anchor="middle" x="142" y="-51" font-family="Times,serif" font-size="14.00" fill="#000000"> Map&lt;string, ComponentItem&gt;</text>
<text text-anchor="middle" x="142" y="-34.2" font-family="Times,serif" font-size="14.00" fill="#000000"> Map&lt;string, Node&gt;</text>
</g>
<!-- ul&#45;&gt;Registry -->
<g id="edge2" class="edge">
<title>ul&#45;&gt;Registry</title>
<path fill="none" stroke="#000000" d="M142,-142.8779C142,-134.8415 142,-126.6502 142,-118.7268"/>
<polyline fill="none" stroke="#000000" points="142,-155.2 142.0001,-145.2 "/>
<path fill="none" stroke="#000000" d="M142,-155.2C139.5625,-155.2 137.125,-153.5333 137,-150.2"/>
<polyline fill="none" stroke="#000000" points="142.0001,-145.2 142.0002,-135.2 "/>
<path fill="none" stroke="#000000" d="M142.0001,-145.2C139.5626,-145.2 137.1251,-143.5333 137.0001,-140.2"/>
<ellipse fill="#000000" stroke="#000000" cx="142" cy="-114.5845" rx="4" ry="4"/>
<text text-anchor="middle" x="161.25" y="-132.6" font-family="Times,serif" font-size="14.00" fill="#000000"> &#160;&#160;hook</text>
</g>
<!-- label -->
<g id="node3" class="node">
<title>label</title>
<text text-anchor="middle" x="327" y="-59" font-family="Times,serif" font-size="14.00" fill="#000000">Hook script</text>
</g>
</g>
</svg>
